<svg width="25" height="24" viewBox="0 0 25 24" fill="none" xmlns="http://www.w3.org/2000/svg">
<path d="M21.9446 12C21.9415 14.3829 21.0672 16.6825 19.4863 18.4656C17.9055 20.2487 15.7272 21.3921 13.3618 21.6806C13.3091 21.6866 13.2557 21.6813 13.2053 21.6652C13.1548 21.649 13.1083 21.6223 13.0689 21.5869C13.0295 21.5515 12.998 21.5081 12.9766 21.4596C12.9551 21.4111 12.9442 21.3586 12.9446 21.3056V14.25H15.1946C15.2974 14.2502 15.3991 14.2293 15.4935 14.1885C15.5879 14.1478 15.6729 14.0881 15.7433 14.0131C15.8136 13.9381 15.8678 13.8494 15.9024 13.7526C15.937 13.6558 15.9514 13.5529 15.9446 13.4503C15.928 13.2575 15.839 13.078 15.6955 12.9481C15.552 12.8182 15.3647 12.7474 15.1711 12.75H12.9446V10.5C12.9446 10.1022 13.1026 9.72064 13.3839 9.43934C13.6652 9.15803 14.0467 9 14.4446 9H15.9446C16.0474 9.00023 16.1491 8.97931 16.2435 8.93855C16.3379 8.89779 16.4229 8.83806 16.4933 8.76306C16.5636 8.68807 16.6178 8.59941 16.6524 8.50261C16.687 8.4058 16.7014 8.3029 16.6946 8.20031C16.678 8.00712 16.5887 7.82742 16.4448 7.69745C16.301 7.56748 16.1131 7.49691 15.9193 7.5H14.4446C13.6489 7.5 12.8859 7.81607 12.3232 8.37868C11.7606 8.94129 11.4446 9.70435 11.4446 10.5V12.75H9.19457C9.09175 12.7498 8.98999 12.7707 8.8956 12.8115C8.80121 12.8522 8.7162 12.9119 8.64587 12.9869C8.57553 13.0619 8.52137 13.1506 8.48674 13.2474C8.45211 13.3442 8.43776 13.4471 8.44457 13.5497C8.46116 13.7429 8.5504 13.9226 8.69429 14.0526C8.83818 14.1825 9.02601 14.2531 9.21988 14.25H11.4446V21.3075C11.4449 21.3604 11.434 21.4128 11.4126 21.4612C11.3913 21.5096 11.3599 21.553 11.3206 21.5884C11.2813 21.6238 11.2349 21.6505 11.1845 21.6667C11.1341 21.6829 11.0809 21.6883 11.0283 21.6825C8.59959 21.3867 6.37041 20.1899 4.78201 18.3289C3.19362 16.468 2.36177 14.0785 2.45113 11.6334C2.63863 6.57094 6.73926 2.45531 11.8055 2.25844C13.1172 2.20763 14.4256 2.42189 15.6525 2.8884C16.8794 3.35492 17.9997 4.0641 18.9462 4.97353C19.8928 5.88296 20.6461 6.97395 21.1613 8.18126C21.6765 9.38856 21.9429 10.6874 21.9446 12Z" fill="#f7f7f6"/>
</svg>
