<svg width="25" height="24" viewBox="0 0 25 24" fill="none" xmlns="http://www.w3.org/2000/svg">
<path d="M20.4446 2.25H3.94458C3.54676 2.25 3.16522 2.40804 2.88392 2.68934C2.60262 2.97064 2.44458 3.35218 2.44458 3.75V20.25C2.44458 20.6478 2.60262 21.0294 2.88392 21.3107C3.16522 21.592 3.54676 21.75 3.94458 21.75H20.4446C20.8424 21.75 21.2239 21.592 21.5052 21.3107C21.7865 21.0294 21.9446 20.6478 21.9446 20.25V3.75C21.9446 3.35218 21.7865 2.97064 21.5052 2.68934C21.2239 2.40804 20.8424 2.25 20.4446 2.25ZM9.19458 16.5C9.19458 16.6989 9.11556 16.8897 8.97491 17.0303C8.83426 17.171 8.64349 17.25 8.44458 17.25C8.24567 17.25 8.0549 17.171 7.91425 17.0303C7.7736 16.8897 7.69458 16.6989 7.69458 16.5V10.5C7.69458 10.3011 7.7736 10.1103 7.91425 9.96967C8.0549 9.82902 8.24567 9.75 8.44458 9.75C8.64349 9.75 8.83426 9.82902 8.97491 9.96967C9.11556 10.1103 9.19458 10.3011 9.19458 10.5V16.5ZM8.44458 9C8.22208 9 8.00457 8.93402 7.81956 8.8104C7.63456 8.68679 7.49036 8.51109 7.40522 8.30552C7.32007 8.09995 7.29779 7.87375 7.3412 7.65552C7.3846 7.43729 7.49175 7.23684 7.64909 7.0795C7.80642 6.92217 8.00687 6.81502 8.2251 6.77162C8.44333 6.72821 8.66953 6.75049 8.8751 6.83564C9.08067 6.92078 9.25637 7.06498 9.37998 7.24998C9.5036 7.43499 9.56958 7.6525 9.56958 7.875C9.56958 8.17337 9.45105 8.45952 9.24008 8.6705C9.0291 8.88147 8.74295 9 8.44458 9ZM17.4446 16.5C17.4446 16.6989 17.3656 16.8897 17.2249 17.0303C17.0843 17.171 16.8935 17.25 16.6946 17.25C16.4957 17.25 16.3049 17.171 16.1642 17.0303C16.0236 16.8897 15.9446 16.6989 15.9446 16.5V13.125C15.9446 12.6277 15.747 12.1508 15.3954 11.7992C15.0438 11.4475 14.5669 11.25 14.0696 11.25C13.5723 11.25 13.0954 11.4475 12.7438 11.7992C12.3921 12.1508 12.1946 12.6277 12.1946 13.125V16.5C12.1946 16.6989 12.1156 16.8897 11.9749 17.0303C11.8343 17.171 11.6435 17.25 11.4446 17.25C11.2457 17.25 11.0549 17.171 10.9143 17.0303C10.7736 16.8897 10.6946 16.6989 10.6946 16.5V10.5C10.6955 10.3163 10.7638 10.1393 10.8866 10.0026C11.0093 9.86596 11.178 9.7791 11.3606 9.75852C11.5431 9.73794 11.7269 9.78508 11.877 9.891C12.0271 9.99691 12.1331 10.1542 12.1749 10.3331C12.6823 9.98894 13.2738 9.78947 13.886 9.75611C14.4981 9.72276 15.1079 9.85679 15.6496 10.1438C16.1914 10.4308 16.6447 10.86 16.9609 11.3852C17.2772 11.9105 17.4444 12.5119 17.4446 13.125V16.5Z" fill="#f7f7f6"/>
</svg>
