<svg width="25" height="24" viewBox="0 0 25 24" fill="none" xmlns="http://www.w3.org/2000/svg">
<path d="M16.6946 2.25H7.69458C6.30265 2.25149 4.96816 2.80509 3.98391 3.78933C2.99967 4.77358 2.44607 6.10807 2.44458 7.5V16.5C2.44607 17.8919 2.99967 19.2264 3.98391 20.2107C4.96816 21.1949 6.30265 21.7485 7.69458 21.75H16.6946C18.0865 21.7485 19.421 21.1949 20.4052 20.2107C21.3895 19.2264 21.9431 17.8919 21.9446 16.5V7.5C21.9431 6.10807 21.3895 4.77358 20.4052 3.78933C19.421 2.80509 18.0865 2.25149 16.6946 2.25ZM12.1946 16.5C11.3046 16.5 10.4345 16.2361 9.69451 15.7416C8.95449 15.2471 8.37772 14.5443 8.03712 13.7221C7.69653 12.8998 7.60741 11.995 7.78105 11.1221C7.95468 10.2492 8.38326 9.44736 9.0126 8.81802C9.64194 8.18868 10.4438 7.7601 11.3167 7.58647C12.1896 7.41283 13.0944 7.50195 13.9167 7.84254C14.7389 8.18314 15.4417 8.75991 15.9362 9.49993C16.4307 10.24 16.6946 11.11 16.6946 12C16.6933 13.1931 16.2188 14.337 15.3752 15.1806C14.5315 16.0243 13.3877 16.4988 12.1946 16.5ZM17.8196 7.5C17.5971 7.5 17.3796 7.43402 17.1946 7.3104C17.0096 7.18679 16.8654 7.01109 16.7802 6.80552C16.6951 6.59995 16.6728 6.37375 16.7162 6.15552C16.7596 5.93729 16.8668 5.73684 17.0241 5.5795C17.1814 5.42217 17.3819 5.31502 17.6001 5.27162C17.8183 5.22821 18.0445 5.25049 18.2501 5.33564C18.4557 5.42078 18.6314 5.56498 18.755 5.74998C18.8786 5.93499 18.9446 6.1525 18.9446 6.375C18.9446 6.67337 18.8261 6.95952 18.6151 7.1705C18.4041 7.38147 18.1179 7.5 17.8196 7.5ZM15.1946 12C15.1946 12.5933 15.0186 13.1734 14.689 13.6667C14.3593 14.1601 13.8908 14.5446 13.3426 14.7716C12.7945 14.9987 12.1913 15.0581 11.6093 14.9424C11.0274 14.8266 10.4928 14.5409 10.0733 14.1213C9.6537 13.7018 9.36798 13.1672 9.25222 12.5853C9.13647 12.0033 9.19588 11.4001 9.42294 10.8519C9.65 10.3038 10.0345 9.83524 10.5279 9.50559C11.0212 9.17595 11.6012 9 12.1946 9C12.9902 9 13.7533 9.31607 14.3159 9.87868C14.8785 10.4413 15.1946 11.2044 15.1946 12Z" fill="#f7f7f6"/>
</svg>
