<svg width="150" height="32" viewBox="0 0 150 32" fill="none" xmlns="http://www.w3.org/2000/svg">
<path fill-rule="evenodd" clip-rule="evenodd" d="M3.15958 18.6596C2.56609 17.0138 4.80521 16.8149 4.79918 18.1891C4.79703 18.6439 4.5677 18.7827 4.28763 19.0142C4.18738 20.557 4.1255 20.4076 4.96468 21.2491C5.6805 21.9671 5.73144 22.2594 7.12309 22.0576C7.02418 20.3886 6.98582 20.7728 8.37512 19.3606C9.39351 18.3258 8.64782 18.6601 9.03406 17.9894C9.57855 17.0433 11.2351 17.925 10.5056 19.007C10.2415 19.3989 9.89933 19.3288 9.41069 19.3389C9.12858 19.7233 8.46769 20.1885 8.2806 20.5815C7.60641 20.8736 7.83922 21.9853 7.83533 23.3367C7.83145 24.7382 7.66492 24.3068 8.93024 25.5714L11.3655 28.0023C11.8636 28.5309 11.7696 28.4037 12.6795 28.3993C13.409 27.4367 14.1319 28.0191 14.2948 28.3883C14.6325 29.155 13.8406 29.9738 13.1064 29.5767C12.5573 29.2793 13.0435 29.1344 12.1773 29.1393C10.9569 29.1464 11.0343 28.5411 9.97973 27.6485L9.64974 27.4411C9.66989 28.0712 9.45744 29.1782 9.82732 29.6288L12.1872 31.8773C12.6536 32.0011 14.0967 31.9639 14.3817 31.7049L15.5225 30.5478C16.3381 29.7207 16.1601 30.0294 16.1575 28.7625C16.1565 28.2668 16.258 25.6926 16.0393 25.3614L15.3933 24.8115C15.1814 25.0007 14.9349 25.2441 14.744 25.4443C14.3855 25.8209 14.3864 25.8292 13.7407 25.8227C12.103 25.806 12.5417 26.1484 11.0281 24.5683C10.473 23.9889 10.6711 24.4317 10.0112 24.214C9.54592 24.0604 9.04399 23.1607 10.0526 22.544C11.5943 22.4448 10.9749 23.4178 11.3833 23.9385C11.5134 24.1042 11.9262 24.4654 12.0833 24.6249C12.4764 25.0234 12.4073 25.0829 13.0869 25.0848C14.5051 25.0883 14.2232 24.9038 15.6478 23.5005C16.0685 23.0861 16.1525 23.186 16.1515 22.4863L16.1215 20.6561C15.9156 20.5234 15.8155 20.3664 15.6619 20.2112C15.5765 20.1255 15.5694 20.0284 15.3761 20.0154C14.9882 19.9888 15.2032 19.9588 15.0224 20.2092C14.7531 20.3622 14.4874 20.6987 14.3083 20.8744C13.9231 21.2531 13.5786 21.1002 13.0002 21.1162C12.9422 21.1345 12.1789 22.1609 11.4449 21.3049C10.8079 20.5617 11.6932 19.4673 12.5325 19.9411C12.6132 19.9867 13.1853 20.725 13.8704 20.2501C13.9842 20.1714 14.9783 19.1734 15.0908 18.9248C15.6374 18.6685 16.1588 18.1024 16.1601 17.4563C16.1614 16.8102 16.2303 15.432 16.1533 14.8697C16.1008 14.4855 16.1578 14.6667 15.9312 14.4264L14.6461 13.1397C14.3809 12.8898 14.5907 12.9717 14.2026 12.9157C13.8589 12.8661 13.0289 12.7902 12.7473 13.0622C11.3494 14.4126 10.1759 11.5961 12.3038 11.7119C13.0647 12.0395 12.2811 12.1792 13.8299 12.1575C15.1049 12.1395 14.4671 12.1691 15.2093 12.664C15.5117 12.5503 16.0132 12.0217 16.0803 11.8822C16.2492 11.5301 16.1515 10.7631 16.1538 10.2774C16.1567 9.6809 16.2966 9.25746 15.8959 8.85477C15.666 8.624 15.1223 8.06954 15.0253 8.02937L13.7022 9.32472C12.5952 10.4987 11.6833 9.1064 11.1581 10.3478C10.8501 10.5034 9.35147 11.9894 9.27577 12.2535C9.08296 12.9274 9.75449 12.7649 9.76022 13.4998C9.76564 14.1635 9.29224 14.3768 8.65723 14.3598C8.32264 14.2498 8.28899 14.1966 8.10282 13.9674C7.74787 12.9636 8.30065 13.0703 8.45572 12.6251C8.77834 11.6981 8.17698 12.2259 9.08081 11.3267C9.35617 11.0529 10.7956 9.7506 10.9406 9.38368C11.5903 9.17815 10.6153 9.04253 12.3613 9.06154C13.1663 9.07023 13.103 8.91058 13.5634 8.44974C13.9218 8.0909 15.1584 6.98187 15.3314 6.62457C15.5467 6.5101 15.707 6.31377 15.8673 6.15515C16.151 5.8748 16.151 5.91159 16.1612 5.41038C16.175 4.74411 16.1541 4.05065 16.1557 3.37998C16.1572 2.80028 16.3097 1.94748 15.9341 1.55185C14.3191 -0.15078 14.5832 0.167383 13.2738 0.154608C12.3264 0.145205 12.4527 0.285228 11.9124 0.824766C10.807 1.92868 10.075 2.31286 10.2627 3.16923L10.0635 3.38254C8.85271 4.75944 7.40674 2.25236 9.40834 2.05183C9.66959 2.02567 9.47411 2.10028 9.69731 1.99603L10.4046 1.21233C7.46658 1.30359 8.61335 0.779494 6.60939 2.69491C6.30457 2.98619 6.33935 2.89963 6.33065 3.31969C6.32779 4.03532 6.54424 6.43529 6.18817 6.87988C5.90861 7.22932 5.37885 7.49198 5.3052 7.90601C5.2068 8.46077 5.2157 8.98775 4.44024 9.00574C3.8215 9.02015 3.45499 8.51679 3.57876 7.89385C3.74733 7.04422 4.35074 7.5206 4.8404 7.17535C5.16251 6.94846 5.60409 6.50488 5.61923 6.05529C5.63805 5.50369 5.63672 4.70731 5.59284 4.16226C3.67502 4.01365 3.61681 4.076 2.94999 4.74043C2.63371 5.05594 2.35384 5.14179 2.34709 5.76299C2.34157 6.28402 2.29544 6.97503 2.33277 7.45907L2.37185 8.0401C2.25186 9.8525 2.33768 9.46556 3.45479 10.6192C3.99917 11.1818 3.97646 11.0375 4.90044 11.0329C5.5508 11.0297 6.07104 11.1812 6.48542 10.7566C6.81847 10.4155 7.08576 10.1493 7.40203 9.83246L8.32939 8.92335C8.73835 8.53119 8.6066 8.32587 8.5935 7.3305C8.57785 6.13062 8.87623 6.69417 9.11682 6.08268L10.0058 5.26433C10.2624 5.00718 10.6614 4.72969 10.7904 4.36074L11.061 4.20713C11.2805 4.10523 11.0949 4.13905 11.4283 4.11248C11.7396 4.08775 12.1123 4.12291 12.448 4.10226C12.7792 3.74925 13.2539 3.33982 13.8132 3.76018C14.3751 4.1826 14.2447 4.65182 13.856 5.19657C13.1088 5.50012 12.9506 5.39188 12.448 4.87105C11.216 4.79338 11.3677 4.89537 10.6915 5.57595C10.2689 6.00133 9.82231 6.45532 9.38645 6.87518C9.1607 7.69741 9.63522 8.64587 9.07273 9.2081C7.09363 11.1859 6.89468 11.7549 5.685 11.8336L3.64167 11.7565C3.38482 11.6242 3.18198 11.37 2.98702 11.1752C1.63956 9.82776 1.63015 10.135 1.6234 8.76586C1.51507 8.82453 0.0435349 9.98005 0.00773363 10.638C-0.0123151 11.0038 0.0129505 11.4637 0.0129505 11.841C0.0132574 13.3165 -0.216178 12.9839 1.3733 14.5351L1.7711 14.8146C2.16492 14.5354 2.84095 13.6263 3.1784 13.5381C3.2588 13.5173 5.41568 13.3984 5.74658 13.6662C6.50762 14.2822 7.11552 15.4737 8.02426 15.4893C8.48262 15.4972 8.96 15.4794 9.42225 15.4815C9.99978 15.4867 10.5821 15.4861 11.1599 15.4822C12.0502 15.4763 12.0011 15.3096 12.5385 15.8839C13.2643 16.6599 13.19 16.0528 13.8057 16.4625C14.3355 16.8151 14.2232 17.1969 14.0627 17.8303C14.0627 17.8303 12.805 18.5829 12.5265 17.5331C12.3819 16.9877 12.6087 16.9986 12.2566 16.6344C11.6258 15.9814 10.6671 16.2396 9.04245 16.2419C6.85581 16.2448 7.5522 16.5752 5.71549 14.7049C5.18 14.1596 5.02207 14.1773 3.69854 14.2504C3.22351 14.2764 2.98364 14.6381 2.35027 15.2686L1.15041 16.5697C0.877194 16.6774 1.1588 16.5394 0.989098 16.6719C0.968231 16.6882 0.842723 16.8021 0.798022 16.8458L0.469774 17.1622C-0.0794178 17.6564 0.129661 18.0494 0.116364 19.3825C0.110329 19.9909 0.000981529 20.165 0.34938 20.526L3.61998 23.7866C4.07098 24.1607 4.09624 23.7719 4.61751 24.0747C5.85491 24.7929 4.24293 26.4282 3.43208 25.3572C2.897 24.6505 3.94465 25.0801 2.5128 23.6992C2.12911 23.3291 2.07848 23.161 1.70635 23.0227L1.71259 26.2793C1.75095 26.2992 1.77601 26.3023 1.78389 26.336C1.79166 26.3688 1.82122 26.3795 1.83166 26.3912L2.47659 27.0471C2.67882 27.25 2.98988 27.6516 3.21829 27.7796C3.57324 27.9786 5.61923 27.8698 6.18919 27.8712C6.64601 27.7063 6.74595 27.1212 7.49839 27.4364C8.68536 27.9337 7.70665 29.6831 6.67864 29.0077C6.32002 28.7719 6.56694 28.7072 6.16863 28.6206C6.01571 28.5875 5.47623 28.6121 5.29743 28.6222C5.48298 29.0144 6.34794 29.7887 6.68202 30.1071C7.19255 30.5942 8.68853 30.4086 9.49263 30.3535C8.92686 29.5746 8.93126 30.3283 8.93259 28.4866C8.93413 26.0803 9.2682 26.9472 7.38986 25.0816C7.05231 24.7463 7.09598 24.7418 7.09987 24.1686C7.10273 23.7432 7.1098 23.3239 7.09721 22.8983C5.26971 22.6279 6.10674 23.5357 3.78651 21.1365C3.55912 20.9015 3.54429 20.8022 3.54143 20.4011C3.53928 20.0761 3.57037 19.6897 3.5539 19.3731C3.52833 18.8745 3.51923 18.9715 3.15958 18.6596ZM31.5788 6.07073L31.6307 6.95837L31.6281 9.30775C31.3052 9.162 30.5228 8.37544 30.2811 8.09305C29.8831 7.62863 30.3052 7.63272 29.9984 7.08511C29.3943 6.00624 27.4978 7.43066 28.7966 8.28703C29.6391 8.84282 28.8764 7.68413 30.4312 9.23396C30.8872 9.68846 31.3128 10.106 31.7205 10.5134C33.2108 12.0024 33.288 11.5121 33.1453 14.2378C33.109 14.932 32.3305 15.2309 32.0903 15.6896C31.7993 15.8382 31.3103 16.3877 31.0578 16.6416C30.7611 16.9403 30.3797 17.2968 30.1266 17.6149C29.78 17.6953 28.623 17.7378 28.2795 17.6613C27.9825 17.5951 27.4188 16.9478 27.2314 16.7517C26.0501 15.5164 26.4932 15.7634 24.5055 15.7654C23.8921 15.7663 23.2775 15.7602 22.6641 15.7673C20.3444 15.7939 21.9396 14.1679 20.5456 14.0279C19.896 13.9627 19.4845 14.4358 19.5943 15.0501C19.7298 15.8066 20.1922 15.5298 20.7722 15.7602C21.2736 15.9595 21.1752 16.4886 21.9226 16.5126C23.0726 16.5492 24.6242 16.3939 25.709 16.505C26.2357 16.5591 26.8391 17.3875 27.2196 17.7701C28.0866 18.6421 27.7808 18.4121 29.3846 18.4215C29.6435 18.4231 30.0185 18.4661 30.255 18.3926C30.4657 18.3271 30.3881 18.3488 30.5194 18.2173C30.6736 18.0627 30.6669 18.1 30.7417 17.8948C31.1087 17.7166 31.2087 17.3904 31.5929 17.2128C31.8405 17.3239 33.1735 18.5451 33.2317 18.9224L33.2273 21.3997C33.1521 21.7819 33.0552 21.6056 32.8945 21.935C32.327 22.2826 32.3203 22.649 31.7118 22.9239C31.7435 21.7947 31.828 22.1014 30.8548 21.1289C29.8481 20.1231 30.0389 20.0751 29.2032 20.0825C26.6371 20.1046 27.2864 19.8086 26.1171 20.9902C25.8888 21.221 25.6236 21.398 25.525 21.6599C25.2462 21.7804 25.1352 21.9629 24.9179 22.1825C23.9015 23.2099 24.4159 22.6796 24.2706 24.7283C23.9757 24.9389 23.4748 25.5184 23.1937 25.7951C22.6963 26.2849 22.4347 26.7073 21.9302 26.7407C20.7641 26.8176 21.1525 26.0791 20.3019 26.2408C19.3639 26.4191 19.3832 27.8574 20.3893 27.9812C20.6391 28.012 20.7779 27.9616 20.9675 27.811C22.0015 26.9881 22.0939 27.945 22.8398 27.1864C23.5362 26.4783 24.3489 25.7474 24.9818 25.0325C24.9904 24.5327 24.861 23.4332 25.0726 23.0655C25.2932 22.6826 25.8061 22.4878 25.9903 22.0424C26.1232 21.9833 26.0229 22.0468 26.162 21.9507C26.9417 21.4121 26.7368 20.8009 28.001 20.8152C29.7072 20.8345 29.3391 20.6603 30.3365 21.6513C30.5017 21.8153 30.5774 21.8823 30.7579 22.0604C30.9683 22.2678 30.9848 22.2673 31.0012 22.5961L31.0014 25.7346C31.01 26.7008 30.8023 26.2188 30.5585 26.7962C30.0206 27.0281 30.2738 27.7186 27.8869 27.4054C27.8538 27.016 27.8225 25.8262 27.8687 25.4652C27.9091 25.1483 28.4758 24.5475 28.7642 24.481C29.1539 24.3908 29.1852 24.5879 29.5654 24.2538C30.1968 23.699 29.7523 22.4608 28.6817 22.8144C27.9572 23.0532 28.3793 23.6862 27.9848 24.1462C27.8131 24.3467 27.6555 24.4622 27.4657 24.6424C26.8451 25.2315 27.2483 26.8684 27.1643 28.2174C27.1264 28.8264 27.0727 28.446 26.9168 28.8574C26.5068 29.0666 25.9822 29.7895 25.6427 30.0772C25.3995 30.2834 25.5594 30.2239 25.158 30.2528L23.2815 30.251C23.7017 29.2183 24.5313 29.6247 24.9387 29.198C25.443 28.6699 25.0533 27.8302 24.3961 27.7765C23.2553 27.6834 23.6272 28.7742 23.2125 29.2183C22.9789 29.4682 22.7852 29.627 22.5582 29.8533C22.3154 30.0953 22.0355 30.3204 21.9615 30.5266C21.5786 30.7226 21.4343 31.1547 21.0536 31.2683C20.8729 31.3223 19.6789 31.3275 19.4601 31.29C19.0809 31.2253 18.1734 30.049 17.7589 29.7654C17.735 29.2223 17.6799 26.1536 17.7806 25.8339C17.8454 25.6285 18.5399 24.988 18.7122 24.8159C19.0154 24.5128 19.3782 24.2333 19.6019 23.8501L20.5903 22.9205C21.0874 22.5077 21.8875 22.9289 22.3844 22.6808C22.5749 22.586 24.2247 20.9109 24.3308 20.6884C25.3675 20.0736 24.9954 19.5324 25.1716 19.2073C25.1742 19.2026 26.1571 18.2812 25.1812 17.6898C24.6164 17.3479 23.9047 17.745 23.8731 18.3751C23.8256 19.3218 24.8417 18.9165 24.0584 20.022L22.5183 21.5332C21.3825 22.7038 21.0901 21.3597 20.1281 22.3614L19.3417 23.1453C19.1331 23.3699 19.2112 23.2277 19.1522 23.429C18.9339 23.5487 18.9661 23.5218 18.803 23.6655C18.4473 23.4679 18.1531 22.9309 17.7937 22.7505L17.7801 20.4895C17.677 19.9956 17.6883 20.0446 17.9835 19.7598C18.1364 19.612 18.3246 19.4505 18.5229 19.2604L18.7925 19.3218C19.2357 20.085 19.8872 19.5638 20.7276 19.739C21.1421 19.8253 21.0115 20.0537 21.4654 20.2123C22.4086 20.5414 23.1021 18.881 21.9522 18.5251C21.5492 18.4004 21.383 18.5107 21.1115 18.748C20.7347 19.0776 20.8129 18.9962 20.1808 18.9955C19.1311 18.9939 19.0809 18.7 18.0054 17.6047C17.6553 17.2482 17.732 17.2123 17.7386 16.6248C17.7438 16.1668 17.6833 14.5518 17.7642 14.2349C17.8521 13.8907 17.7096 14.1672 17.9889 13.8776C18.2202 13.6381 18.7552 13.2434 18.8732 12.9323C19.1412 12.7972 19.4346 12.4501 19.6502 12.2274C20.0899 11.7729 19.9624 11.8395 20.7318 11.8467C20.84 11.9265 20.787 11.8892 20.8797 11.9748C21.0565 12.1378 21.1579 12.276 21.4265 12.3328C21.7778 12.4071 22.0861 12.2611 22.2515 12.0796C22.7274 11.557 22.4123 10.711 21.735 10.6421C21.2055 10.5885 21.1764 10.7551 20.9017 10.995C20.5488 11.303 20.4023 11.08 19.9005 11.1567C19.4041 11.2326 19.0005 11.9998 18.5229 12.2629C17.749 11.5773 17.7376 11.7309 17.7409 10.4614C17.7451 8.82299 17.6768 9.51349 18.4655 8.54571C19.7074 7.53839 19.1305 7.23433 20.8317 7.31589C21.3926 7.34277 21.6283 7.76395 22.2108 8.3369C22.6887 8.80704 22.3183 8.61409 22.5036 9.23447C22.6811 9.82981 23.6103 9.99906 24.0137 9.41916C24.4423 8.80317 23.9989 8.15018 23.2942 8.04788C22.2811 7.90111 22.121 6.6214 21.1081 6.58522C19.9853 6.54506 19.546 6.46186 19.0718 6.96675C18.906 7.14326 18.5561 7.43086 18.4469 7.5809C17.5771 6.99905 17.7327 6.72105 17.7337 5.49542C17.7344 4.73389 17.6548 3.32204 17.7778 2.64432C17.9445 2.24766 19.3454 1.30277 19.4581 0.852154C19.9699 0.699358 20.5686 0.756496 21.1058 0.761198C21.7322 0.766717 21.8533 1.01211 22.2009 1.36226C22.4308 1.59385 23.6189 2.87295 23.8666 2.92068C23.9877 3.57949 23.9404 4.29164 23.9253 4.96292C23.4899 4.79316 23.9133 4.99083 23.699 4.84345L22.4436 3.59379C22.0341 3.26623 21.7034 3.52573 21.2292 3.40523C20.8359 3.30507 20.9774 2.94735 20.3593 2.90718C19.362 2.84218 19.1673 3.98626 19.7556 4.44394C20.7049 5.18247 20.8109 3.74761 21.8979 4.15112C22.0845 4.22021 24.2283 6.43969 24.683 6.8807C25.6079 7.77775 25.7473 7.748 25.7421 8.52466C25.7374 9.20738 25.6675 10.6544 25.7773 11.2435C25.5176 11.4128 25.2425 11.7361 25.0087 11.9714C24.8991 12.0817 24.3064 12.7047 24.227 12.7469C23.8564 12.9449 23.4783 12.6582 23.1483 13.1475C22.5778 13.9934 23.6487 14.9581 24.4084 14.3166C25.1087 13.7251 24.155 13.8386 25.2034 12.8158C25.5145 12.5125 26.2396 11.8615 26.3693 11.5687C26.5006 11.2409 26.428 10.6137 26.4238 10.19C26.6682 10.1564 26.8411 10.1485 27.0884 10.1459C27.952 10.137 27.7722 10.2995 28.7687 11.2579C28.9156 11.399 29.0448 11.5072 29.0952 11.6738C29.1719 11.926 29.1317 12.8315 29.1087 13.1285C28.1605 13.9567 28.8088 14.9938 29.7331 14.7745C30.1457 14.6767 30.4581 14.2055 30.3151 13.7032C30.1185 13.0142 29.8204 13.6472 29.8382 12.4888C29.8473 11.8817 29.9496 11.4551 29.6485 11.1189L28.8122 10.2987C27.4524 8.92836 28.3322 9.66791 26.4264 9.36406C26.4494 7.17739 26.5577 7.71755 25.2911 6.45348C24.7668 5.9304 24.679 6.00184 24.6884 5.03641C24.6952 4.33028 24.7007 3.62118 24.6864 2.91577C24.5423 2.56367 24.2839 2.51646 24.15 2.19257C24.843 2.16181 26.2641 1.97773 26.7084 2.37541L28.1276 3.86004C27.0335 3.93516 27.4469 3.88641 26.8305 3.53646C26.3716 3.27615 25.8468 3.4592 25.6466 3.79279C25.1436 4.63036 26.2302 5.56482 26.9417 4.89742C27.377 4.48901 27.586 4.62545 28.2792 4.6275C28.6927 4.62882 29.4819 4.58027 29.8497 4.62984C30.4241 4.70731 31.0236 5.782 31.5788 6.07073ZM32.3643 6.30927L32.3683 5.86284L32.1595 5.76452C31.9022 5.3045 31.4444 4.97571 31.0458 4.56699C30.0324 3.52778 30.6319 4.09868 29.3851 3.86085C28.884 3.76509 27.2655 1.70985 26.8699 1.54929C26.4818 1.39179 25.0191 1.49083 24.5055 1.49267C23.0431 1.49839 23.5192 1.63117 22.163 0.287583C21.7303 -0.141369 21.207 0.0403509 20.0847 0.0273709C19.5802 0.0213408 19.3905 -0.0897632 19.1824 0.262332C18.983 0.379663 18.9862 0.389578 18.8189 0.552287C18.6801 0.687402 18.5897 0.7847 18.4997 0.875968C16.5516 2.85138 16.9917 1.59856 16.9833 6.04722C16.9828 6.45328 16.8987 7.00293 17.0911 7.29871C17.2112 7.4836 17.6099 7.85991 17.789 7.88679L17.836 8.28601C16.7014 8.85396 16.9935 9.65534 16.9914 10.5535C16.9903 11.0373 16.8886 11.6212 17.1545 11.9229C17.2247 12.0029 17.8479 12.6275 17.9986 12.7021C17.9806 13.0757 17.3573 13.4562 17.1517 13.6917C16.8251 14.0657 16.9909 14.9878 16.9914 15.5195C16.9927 17.1924 16.646 17.539 17.9239 18.4867C17.9931 18.5884 18.0375 18.7204 18.0612 18.7668C17.6984 19.0229 17.5528 19.3223 17.1472 19.5632L17.171 19.8751L16.9552 19.9322L16.9715 21.2609C16.9903 21.5545 17.0068 22.1283 16.9914 22.4219C16.9671 22.8843 16.8706 22.9273 17.2281 23.0874C17.2675 23.314 17.9986 23.8985 18.2541 24.2666C17.9391 24.5011 17.6718 24.8234 17.3643 25.1189C16.8395 25.6233 16.9856 25.6801 16.9877 26.5553C16.989 27.1799 16.9071 29.7003 17.0553 30.0896L18.0725 31.05C18.3726 31.3341 18.8322 31.9198 19.1686 31.9733C19.4135 32.0121 20.911 32.0037 21.1953 31.9793C21.5502 31.9487 21.6372 31.81 21.8316 31.6074C21.9947 31.4376 22.18 31.254 22.3126 31.0892C23.1893 30.6339 24.5744 31.1095 25.6129 30.9215C25.9671 30.8576 26.2759 30.438 26.5967 30.1162C26.7752 29.937 27.3402 29.4338 27.4307 29.205C27.8914 28.9837 27.8526 28.7054 27.8888 28.1317C29.2244 28.1168 30.3617 28.4931 30.8924 27.2769C31.0664 27.2254 31.6555 26.8009 31.695 26.2845C31.8644 24.0716 31.1899 24.5851 32.4257 23.3383C32.7149 23.0467 33.216 22.6253 33.3682 22.3186C33.5982 22.2172 33.6981 22.0419 33.9286 21.8651C34.0045 21.408 34.0499 18.7451 33.9066 18.4429C33.8536 18.3308 33.2076 17.7156 33.0513 17.5591C32.7491 17.2571 32.3887 16.9517 32.1524 16.6231C32.272 16.4109 32.3618 16.3752 32.5075 16.117C32.6896 16.0631 32.7465 15.9688 32.8997 15.8153C34.0812 14.6297 33.8388 15.0864 33.8487 12.7605C33.8542 11.4887 34.0504 11.7956 32.7739 10.5692C32.3201 10.1328 32.3334 10.2453 32.3428 9.45349C32.3539 8.51024 32.2668 7.18813 32.3643 6.30927ZM17.0686 21.2439C17.0391 21.2632 17.007 21.2703 16.9715 21.2609L17.0686 21.2439ZM24.5976 18.2681C24.9899 18.2548 24.8704 18.2432 24.8826 18.5895L24.5754 18.5822L24.5976 18.2681ZM24.0174 13.5882C23.9101 13.9389 23.8089 13.9206 23.6889 13.5882C23.8948 13.4508 23.7501 13.3986 24.0174 13.5882ZM21.782 11.5956L21.4267 11.5842C21.5677 11.2172 21.6333 11.2078 21.782 11.5956ZM29.108 23.5558C29.325 24.016 29.1019 23.6462 29.0155 23.7728C28.7884 23.6249 28.7697 23.7521 28.9236 23.4546C29.1654 23.513 29.0002 23.3268 29.108 23.5558ZM21.5413 19.2902C21.835 19.0905 21.7632 19.2336 21.8585 19.382C21.7601 19.4561 22.021 19.5692 21.6627 19.4777C21.4148 19.4146 21.6066 19.408 21.5413 19.2902ZM20.3256 14.9894C20.0322 14.6988 20.4605 14.7484 20.608 14.7176C20.5728 14.8444 20.5574 15.2194 20.3256 14.9894ZM29.418 7.51856C29.2849 7.72798 29.3963 7.75066 29.1275 7.61033C29.2178 7.48779 29.2157 7.46275 29.1852 7.47389C29.1231 7.49658 28.9438 7.66849 29.1837 7.47522L29.1852 7.47389C29.1948 7.46643 29.2188 7.44711 29.2274 7.44292C29.5639 7.27909 29.3381 7.46715 29.418 7.51856ZM26.2571 4.20764C26.5279 4.05638 26.3072 4.0901 26.5245 4.20764C26.3189 4.67451 26.3153 4.25987 26.2571 4.20764ZM29.6422 13.8641C29.5676 14.2094 29.8687 13.9828 29.2922 14.1395C29.3935 13.764 29.2319 13.6435 29.6422 13.8641ZM20.3269 3.84205C19.8879 4.06056 20.2058 3.81466 20.1124 3.74792C20.2223 3.68118 20.0137 3.46001 20.4178 3.65583C20.3742 3.89131 20.5641 3.72369 20.3269 3.84205Z" fill="url(#paint0_linear_2004_2300)"/>
<path d="M43.9625 19.2851C44.1331 20.3519 44.5563 21.1233 45.2319 21.5997C45.9076 22.0765 46.9137 22.3146 48.2504 22.3146C48.919 22.3146 49.477 22.2398 49.9252 22.0905C50.3731 21.9413 50.7322 21.7422 51.0025 21.4931C51.2727 21.2445 51.4646 20.9526 51.5785 20.6186C51.6923 20.2843 51.7491 19.9322 51.7491 19.5627C51.7491 19.2639 51.7136 18.9758 51.6425 18.6986C51.5714 18.4213 51.4326 18.1689 51.2264 17.9412C51.0202 17.7137 50.7357 17.5145 50.3731 17.3438C50.0105 17.1732 49.5446 17.038 48.9758 16.9384L47.0558 16.5972C46.3022 16.4693 45.6338 16.2986 45.0505 16.0852C44.4674 15.872 43.9733 15.5983 43.5679 15.2639C43.1625 14.9296 42.8567 14.5137 42.6506 14.0161C42.4444 13.5181 42.3413 12.9138 42.3413 12.2027C42.3413 11.5058 42.4872 10.8941 42.7787 10.368C43.0702 9.84172 43.4648 9.40082 43.9625 9.04548C44.4605 8.68994 45.0505 8.42671 45.7331 8.25598C46.4157 8.08535 47.1554 8 47.952 8C48.9616 8 49.8044 8.11044 50.4797 8.33084C51.1553 8.55105 51.7063 8.8463 52.1333 9.2162C52.5599 9.58572 52.8834 10.0089 53.1039 10.4853C53.3243 10.9617 53.4912 11.449 53.6051 11.9467L51.7704 12.3092C51.6568 11.8826 51.5109 11.5023 51.3333 11.168C51.1553 10.8339 50.9206 10.5564 50.6291 10.336C50.3376 10.1155 49.9785 9.94859 49.5519 9.83468C49.1252 9.72086 48.606 9.66404 47.9944 9.66404C47.2975 9.66404 46.7145 9.72809 46.2451 9.85599C45.7759 9.98408 45.3991 10.1583 45.1145 10.3787C44.83 10.5992 44.6273 10.8621 44.5065 11.168C44.3856 11.4737 44.3253 11.7972 44.3253 12.1386C44.3253 12.5084 44.3714 12.8319 44.464 13.1092C44.5563 13.3867 44.7127 13.6284 44.9331 13.8347C45.1536 14.0408 45.4416 14.2114 45.7972 14.3466C46.1528 14.4817 46.5937 14.5991 47.1199 14.6987L49.2531 15.0825C50.8318 15.3813 51.9908 15.8755 52.7306 16.5654C53.47 17.255 53.8398 18.2684 53.8398 19.6052C53.8398 20.2167 53.7224 20.7893 53.4877 21.3225C53.253 21.856 52.9047 22.3217 52.4425 22.7197C51.9803 23.1181 51.4008 23.4309 50.7039 23.6586C50.007 23.8861 49.1893 24 48.2504 24C47.3546 24 46.5403 23.9109 45.808 23.7332C45.0756 23.5552 44.439 23.2746 43.8987 22.8904C43.3582 22.5066 42.9243 22.0159 42.5973 21.4186C42.2702 20.8213 42.071 20.1101 42 19.2851H43.9625ZM56.8176 14.0585H55.1107V12.5867H56.8176V9.57878H58.6735V12.5867H61.5961V14.0585H58.6735V20.5225C58.6735 21.063 58.7943 21.4966 59.036 21.824C59.2777 22.151 59.6477 22.3146 60.1454 22.3146C60.4584 22.3146 60.7321 22.2931 60.9669 22.2506C61.2013 22.2078 61.4183 22.151 61.6175 22.08L61.9375 23.5092C61.653 23.6089 61.3437 23.6904 61.0094 23.7544C60.675 23.8186 60.2804 23.8506 59.8252 23.8506C59.1997 23.8506 58.6948 23.758 58.3106 23.573C57.9268 23.3884 57.621 23.1252 57.3933 22.7838C57.1659 22.4425 57.013 22.0371 56.9349 21.568C56.8565 21.0985 56.8176 20.5865 56.8176 20.0318V14.0585ZM70.099 22.1012C69.7005 22.5846 69.1959 23.0008 68.5843 23.3491C67.9727 23.6977 67.2118 23.8718 66.3017 23.8718C65.7469 23.8718 65.2385 23.8043 64.7763 23.6692C64.3142 23.534 63.9157 23.3278 63.5817 23.0506C63.2474 22.7731 62.9879 22.4283 62.803 22.0159C62.6181 21.6035 62.5258 21.1198 62.5258 20.5653C62.5258 19.8113 62.6856 19.1998 63.0056 18.7306C63.3257 18.2612 63.7524 17.8916 64.2856 17.6214C64.8188 17.3511 65.4199 17.1589 66.0883 17.0454C66.7566 16.9315 67.4465 16.8604 68.1576 16.8318L70.0561 16.7678V16.3412C70.0561 15.4026 69.8573 14.7269 69.4588 14.3145C69.0607 13.9022 68.4136 13.696 67.5175 13.696C66.6357 13.696 65.9886 13.8416 65.5763 14.1334C65.1639 14.425 64.8937 14.8265 64.7656 15.3385L63.0802 15.1466C63.2794 14.137 63.7559 13.401 64.5096 12.9385C65.2635 12.4764 66.2874 12.2455 67.5816 12.2455C68.3781 12.2455 69.0499 12.3413 69.5975 12.5335C70.1453 12.7253 70.5896 12.9991 70.931 13.3547C71.2722 13.7102 71.5174 14.1511 71.6668 14.6774C71.8163 15.2037 71.8908 15.7937 71.8908 16.448V23.6158H70.099V22.1012ZM70.0561 18.0906L68.2855 18.1546C67.5318 18.1832 66.906 18.2542 66.4083 18.3681C65.9106 18.4816 65.5157 18.6345 65.2242 18.8264C64.9327 19.0187 64.7265 19.2569 64.6056 19.5411C64.4848 19.8256 64.4242 20.1527 64.4242 20.5225C64.4242 21.0773 64.5914 21.5217 64.9257 21.856C65.2597 22.19 65.811 22.3572 66.5789 22.3572C67.674 22.3572 68.5272 22.0869 69.1388 21.5465C69.7504 21.0062 70.0561 20.2665 70.0561 19.3279V18.0906ZM74.3566 12.5867H76.1913V14.272C76.7318 13.5467 77.3291 13.0276 77.9831 12.7146C78.6375 12.4018 79.3271 12.2455 80.0526 12.2455C81.3039 12.2455 82.2321 12.5867 82.8364 13.2694C83.4409 13.952 83.7431 14.9547 83.7431 16.2774V23.6158H81.8872V16.64C81.8872 15.616 81.7023 14.8941 81.3324 14.4747C80.9626 14.0551 80.3938 13.8454 79.626 13.8454C79.2135 13.8454 78.8043 13.9165 78.3993 14.0585C77.9939 14.201 77.6276 14.4285 77.3005 14.7412C76.945 15.0543 76.6747 15.3848 76.4898 15.7334C76.3051 16.0817 76.2125 16.5334 76.2125 17.0878V23.6158H74.3566V12.5867ZM86.8063 14.0585H85.0994V12.5867H86.8063V9.57878H88.6622V12.5867H91.5849V14.0585H88.6622V20.5225C88.6622 21.063 88.783 21.4966 89.0247 21.824C89.2665 22.151 89.6363 22.3146 90.134 22.3146C90.4471 22.3146 90.7208 22.2931 90.9556 22.2506C91.19 22.2078 91.4069 22.151 91.6062 22.08L91.9262 23.5092C91.6417 23.6089 91.3323 23.6904 90.998 23.7544C90.6637 23.8186 90.2691 23.8506 89.8139 23.8506C89.1884 23.8506 88.6835 23.758 88.2993 23.573C87.9155 23.3884 87.6097 23.1252 87.382 22.7838C87.1546 22.4425 87.0017 22.0371 86.9236 21.568C86.8452 21.0985 86.8063 20.5865 86.8063 20.0318V14.0585ZM102.434 20.5225C102.249 21.5893 101.776 22.4283 101.015 23.0398C100.254 23.6514 99.163 23.9572 97.741 23.9572C96.0627 23.9572 94.7755 23.4487 93.8797 22.4317C92.9836 21.4151 92.5357 19.9962 92.5357 18.1758C92.5357 17.223 92.6635 16.3767 92.9195 15.6373C93.1755 14.8979 93.5346 14.279 93.997 13.7813C94.4592 13.2836 95.0102 12.903 95.6503 12.6401C96.2901 12.3768 96.987 12.2455 97.741 12.2455C98.5943 12.2455 99.3267 12.3806 99.9383 12.6505C100.55 12.9208 101.051 13.2941 101.442 13.7705C101.833 14.247 102.125 14.8125 102.317 15.4666C102.509 16.1207 102.605 16.8392 102.605 17.6214V18.56H94.4129C94.4129 19.1144 94.4875 19.6302 94.6369 20.1067C94.7862 20.5831 94.9998 20.9954 95.277 21.3437C95.5542 21.6923 95.899 21.966 96.3117 22.1653C96.724 22.3642 97.2005 22.4638 97.741 22.4638C98.6653 22.4638 99.3409 22.2896 99.7675 21.9413C100.194 21.5928 100.486 21.1198 100.642 20.5225H102.434ZM100.749 17.1732C100.749 16.6469 100.692 16.1705 100.578 15.7439C100.464 15.3172 100.287 14.9511 100.045 14.6454C99.8031 14.3396 99.4903 14.1014 99.1062 13.9307C98.7221 13.7601 98.26 13.6747 97.7194 13.6747C96.7383 13.6747 95.9739 13.9733 95.4264 14.5705C94.8786 15.1679 94.555 16.0354 94.4558 17.1732H100.749ZM114.265 19.8827C114.08 21.1483 113.597 22.1437 112.815 22.8692C112.032 23.5946 110.93 23.9572 109.508 23.9572C108.669 23.9572 107.926 23.822 107.278 23.5518C106.631 23.2815 106.091 22.8942 105.657 22.3892C105.223 21.8843 104.896 21.2727 104.676 20.5545C104.455 19.8364 104.345 19.0292 104.345 18.1333C104.345 17.2515 104.466 16.448 104.708 15.7226C104.95 14.9972 105.298 14.3786 105.753 13.8667C106.208 13.3547 106.763 12.9564 107.417 12.6721C108.071 12.3876 108.811 12.2455 109.636 12.2455C110.958 12.2455 111.983 12.569 112.708 13.2161C113.433 13.8631 113.895 14.7554 114.094 15.8932L112.239 16.2346C112.167 15.879 112.071 15.552 111.951 15.2531C111.83 14.9547 111.663 14.6951 111.449 14.4747C111.236 14.2543 110.976 14.0836 110.671 13.9628C110.365 13.8416 109.998 13.7813 109.572 13.7813C108.989 13.7813 108.491 13.8914 108.078 14.1119C107.666 14.3323 107.328 14.6381 107.065 15.0292C106.802 15.4203 106.61 15.879 106.489 16.4052C106.368 16.9315 106.308 17.4932 106.308 18.0906C106.308 18.6878 106.365 19.2496 106.478 19.7758C106.592 20.3021 106.777 20.7607 107.033 21.1519C107.289 21.5429 107.623 21.8522 108.036 22.08C108.448 22.3074 108.953 22.4212 109.551 22.4212C110.446 22.4212 111.111 22.1935 111.545 21.7386C111.979 21.2834 112.26 20.6649 112.388 19.8827H114.265ZM116.283 8.38417H118.139V14.2293C118.679 13.5324 119.273 13.0276 119.92 12.7146C120.567 12.4018 121.253 12.2455 121.979 12.2455C123.23 12.2455 124.158 12.5867 124.762 13.2694C125.367 13.952 125.669 14.9547 125.669 16.2774V23.6158H123.792V16.64C123.792 15.616 123.611 14.8941 123.248 14.4747C122.885 14.0551 122.32 13.8454 121.552 13.8454C121.14 13.8454 120.73 13.9165 120.325 14.0585C119.92 14.201 119.554 14.4285 119.227 14.7412C118.871 15.0543 118.601 15.3848 118.416 15.7334C118.231 16.0817 118.139 16.5334 118.139 17.0878V23.6158H116.283V8.38417ZM137.585 8.38417H139.655L145.564 23.6158H143.431L141.831 19.3704H135.303L133.703 23.6158H131.655L137.585 8.38417ZM141.234 17.6638L138.546 10.6026L135.9 17.6638H141.234ZM147.134 8.38417H149.096V23.6158H147.134V8.38417Z" fill="#212529"/>
<defs>
<linearGradient id="paint0_linear_2004_2300" x1="8.54451" y1="22.5666" x2="38.5576" y2="8.76963" gradientUnits="userSpaceOnUse">
<stop stop-color="#2B64BA"/>
<stop offset="1" stop-color="#3BDC80"/>
</linearGradient>
</defs>
</svg>
